<svg width="900" height="500" viewBox="0 0 900 500" fill="none" xmlns="http://www.w3.org/2000/svg">
  <rect x="0" y="0" width="900" height="500" rx="48" fill="url(#paint0_linear)"/>
  <circle cx="180" cy="190" r="120" fill="url(#paint1_radial)" opacity="0.75"/>
  <circle cx="720" cy="180" r="140" fill="url(#paint2_radial)" opacity="0.6"/>
  <path d="M180 220C210 150 260 150 290 220C320 290 260 360 210 360C160 360 150 290 180 220Z" fill="#FFB8D2"/>
  <path d="M700 260C730 190 790 190 820 260C850 330 790 400 740 400C690 400 670 330 700 260Z" fill="#FFE585"/>
  <g opacity="0.85">
    <path d="M380 310C360 270 360 240 380 220C440 160 510 160 570 220C590 240 590 270 570 310C520 400 430 400 380 310Z" fill="#7EC6FF"/>
    <path d="M420 220C420 180 460 150 500 150C540 150 580 180 580 220C580 280 500 360 500 360C500 360 420 280 420 220Z" fill="#4C8CFF"/>
    <circle cx="460" cy="215" r="20" fill="white"/>
    <circle cx="540" cy="215" r="20" fill="white"/>
    <circle cx="465" cy="215" r="9" fill="#1F2A4B"/>
    <circle cx="535" cy="215" r="9" fill="#1F2A4B"/>
    <path d="M470 275C490 295 510 295 530 275" stroke="#1F2A4B" stroke-width="12" stroke-linecap="round"/>
  </g>
  <text x="450" y="430" text-anchor="middle" fill="#1F2A4B" font-family="'Fredoka One', cursive" font-size="56">Max&amp;Co</text>
  <defs>
    <linearGradient id="paint0_linear" x1="64" y1="20" x2="840" y2="480" gradientUnits="userSpaceOnUse">
      <stop stop-color="#E0F3FF"/>
      <stop offset="0.5" stop-color="#FFF6FB"/>
      <stop offset="1" stop-color="#FFE6F2"/>
    </linearGradient>
    <radialGradient id="paint1_radial" cx="0" cy="0" r="1" gradientUnits="userSpaceOnUse" gradientTransform="translate(180 190) rotate(90) scale(120)">
      <stop stop-color="#94E3FF"/>
      <stop offset="1" stop-color="#94E3FF" stop-opacity="0"/>
    </radialGradient>
    <radialGradient id="paint2_radial" cx="0" cy="0" r="1" gradientUnits="userSpaceOnUse" gradientTransform="translate(720 180) rotate(90) scale(140)">
      <stop stop-color="#FFD4A6"/>
      <stop offset="1" stop-color="#FFD4A6" stop-opacity="0"/>
    </radialGradient>
  </defs>
</svg>
